HIERARCHY
ROOT pelvis
{
	OFFSET 0.003123 -0.351407 0.012037
	CHANNELS 6 Xposition Yposition Zposition Zrotation Yrotation Xrotation 
	JOINT left_hip
	{
		OFFSET 0.058189 -0.092763 -0.026001
		CHANNELS 3 Zrotation Yrotation Xrotation
		JOINT left_knee
		{
			OFFSET 0.054695 -0.378753 -0.009396
			CHANNELS 3 Zrotation Yrotation Xrotation
			JOINT left_ankle
			{
				OFFSET -0.043453 -0.403059 -0.031876
				CHANNELS 3 Zrotation Yrotation Xrotation
				JOINT left_foot
				{
					OFFSET 0.047257 -0.057997 0.118216
					CHANNELS 3 Zrotation Yrotation Xrotation
					End Site
					{
						OFFSET 0.000000 0.000000 0.000000
					}
				}
			}
		}
	}
	JOINT right_hip
	{
		OFFSET -0.063267 -0.103908 -0.021250
		CHANNELS 3 Zrotation Yrotation Xrotation
		JOINT right_knee
		{
			OFFSET -0.044210 -0.362380 -0.016824
			CHANNELS 3 Zrotation Yrotation Xrotation
			JOINT right_ankle
			{
				OFFSET 0.015417 -0.410728 -0.020192
				CHANNELS 3 Zrotation Yrotation Xrotation
				JOINT right_foot
				{
					OFFSET -0.038812 -0.058328 0.119049
					CHANNELS 3 Zrotation Yrotation Xrotation
					End Site
					{
						OFFSET 0.000000 0.000000 0.000000
					}
				}
			}
		}
	}
	JOINT spine_1
	{
		OFFSET -0.002763 0.109891 -0.027618
		CHANNELS 3 Zrotation Yrotation Xrotation
		JOINT spine_2
		{
			OFFSET 0.009448 0.131853 -0.005940
			CHANNELS 3 Zrotation Yrotation Xrotation
			JOINT spine_3
			{
				OFFSET -0.011330 0.052235 0.028447
				CHANNELS 3 Zrotation Yrotation Xrotation
				JOINT neck
				{
					OFFSET -0.012164 0.165167 -0.031615
					CHANNELS 3 Zrotation Yrotation Xrotation
					JOINT head
					{
						OFFSET 0.024783 0.160452 0.020737
						CHANNELS 3 Zrotation Yrotation Xrotation
						End Site
						{
							OFFSET 0.000000 0.000000 0.000000
						}
					}
				}
				JOINT left_collar
				{
					OFFSET 0.046364 0.084944 -0.007220
					CHANNELS 3 Zrotation Yrotation Xrotation
					JOINT left_shoulder
					{
						OFFSET 0.119239 0.057728 -0.015461
						CHANNELS 3 Zrotation Yrotation Xrotation
						JOINT left_elbow
						{
							OFFSET 0.254123 -0.072151 -0.042459
							CHANNELS 3 Zrotation Yrotation Xrotation
							JOINT left_wrist
							{
								OFFSET 0.251987 0.023221 -0.002472
								CHANNELS 3 Zrotation Yrotation Xrotation
								JOINT left_index_1
								{
									OFFSET 0.101902 -0.008688 0.019351
									CHANNELS 3 Zrotation Yrotation Xrotation
									JOINT left_index_2
									{
										OFFSET 0.030149 -0.011154 0.001151
										CHANNELS 3 Zrotation Yrotation Xrotation
										JOINT left_index_3
										{
											OFFSET 0.006504 -0.021577 -0.002433
											CHANNELS 3 Zrotation Yrotation Xrotation
											End Site
											{
												OFFSET 0.000000 0.000000 0.000000
											}
										}
									}
								}
								JOINT left_middle_1
								{
									OFFSET 0.109398 -0.006328 -0.003981
									CHANNELS 3 Zrotation Yrotation Xrotation
									JOINT left_middle_2
									{
										OFFSET 0.026472 -0.015218 -0.004641
										CHANNELS 3 Zrotation Yrotation Xrotation
										JOINT left_middle_3
										{
											OFFSET 0.005022 -0.023347 -0.001911
											CHANNELS 3 Zrotation Yrotation Xrotation
											End Site
											{
												OFFSET 0.000000 0.000000 0.000000
											}
										}
									}
								}
								JOINT left_pinky_1
								{
									OFFSET 0.084047 -0.014539 -0.043750
									CHANNELS 3 Zrotation Yrotation Xrotation
									JOINT left_pinky_2
									{
										OFFSET 0.012124 -0.014448 -0.005375
										CHANNELS 3 Zrotation Yrotation Xrotation
										JOINT left_pinky_3
										{
											OFFSET 0.003798 -0.018853 0.000167
											CHANNELS 3 Zrotation Yrotation Xrotation
											End Site
											{
												OFFSET 0.000000 0.000000 0.000000
											}
										}
									}
								}
								JOINT left_ring_1
								{
									OFFSET 0.097444 -0.009268 -0.027345
									CHANNELS 3 Zrotation Yrotation Xrotation
									JOINT left_ring_2
									{
										OFFSET 0.023561 -0.016057 -0.001895
										CHANNELS 3 Zrotation Yrotation Xrotation
										JOINT left_ring_3
										{
											OFFSET 0.004257 -0.023548 0.000814
											CHANNELS 3 Zrotation Yrotation Xrotation
											End Site
											{
												OFFSET 0.000000 0.000000 0.000000
											}
										}
									}
								}
								JOINT left_thumb_1
								{
									OFFSET 0.040636 -0.017977 0.025611
									CHANNELS 3 Zrotation Yrotation Xrotation
									JOINT left_thumb_2
									{
										OFFSET 0.021637 -0.017639 0.011623
										CHANNELS 3 Zrotation Yrotation Xrotation
										JOINT left_thumb_3
										{
											OFFSET 0.024002 -0.008356 0.006548
											CHANNELS 3 Zrotation Yrotation Xrotation
											End Site
											{
												OFFSET 0.000000 0.000000 0.000000
											}
										}
									}
								}
							}
						}
					}
				}
				JOINT right_collar
				{
					OFFSET -0.047695 0.084339 -0.013400
					CHANNELS 3 Zrotation Yrotation Xrotation
					JOINT right_shoulder
					{
						OFFSET -0.102578 0.053524 -0.012669
						CHANNELS 3 Zrotation Yrotation Xrotation
						JOINT right_elbow
						{
							OFFSET -0.271150 -0.036492 -0.026467
							CHANNELS 3 Zrotation Yrotation Xrotation
							JOINT right_wrist
							{
								OFFSET -0.249267 -0.004533 -0.015325
								CHANNELS 3 Zrotation Yrotation Xrotation
								JOINT right_index_1
								{
									OFFSET -0.099881 -0.011783 0.019600
									CHANNELS 3 Zrotation Yrotation Xrotation
									JOINT right_index_2
									{
										OFFSET -0.030148 -0.011154 0.001151
										CHANNELS 3 Zrotation Yrotation Xrotation
										JOINT right_index_3
										{
											OFFSET -0.006505 -0.021577 -0.002432
											CHANNELS 3 Zrotation Yrotation Xrotation
											End Site
											{
												OFFSET 0.000000 0.000000 0.000000
											}
										}
									}
								}
								JOINT right_middle_1
								{
									OFFSET -0.107376 -0.009422 -0.003734
									CHANNELS 3 Zrotation Yrotation Xrotation
									JOINT right_middle_2
									{
										OFFSET -0.026472 -0.015218 -0.004641
										CHANNELS 3 Zrotation Yrotation Xrotation
										JOINT right_middle_3
										{
											OFFSET -0.005022 -0.023347 -0.001911
											CHANNELS 3 Zrotation Yrotation Xrotation
											End Site
											{
												OFFSET 0.000000 0.000000 0.000000
											}
										}
									}
								}
								JOINT right_pinky_1
								{
									OFFSET -0.082027 -0.017634 -0.043503
									CHANNELS 3 Zrotation Yrotation Xrotation
									JOINT right_pinky_2
									{
										OFFSET -0.012123 -0.014448 -0.005374
										CHANNELS 3 Zrotation Yrotation Xrotation
										JOINT right_pinky_3
										{
											OFFSET -0.003798 -0.018852 0.000167
											CHANNELS 3 Zrotation Yrotation Xrotation
											End Site
											{
												OFFSET 0.000000 0.000000 0.000000
											}
										}
									}
								}
								JOINT right_ring_1
								{
									OFFSET -0.095423 -0.012362 -0.027099
									CHANNELS 3 Zrotation Yrotation Xrotation
									JOINT right_ring_2
									{
										OFFSET -0.023561 -0.016057 -0.001895
										CHANNELS 3 Zrotation Yrotation Xrotation
										JOINT right_ring_3
										{
											OFFSET -0.004257 -0.023548 0.000816
											CHANNELS 3 Zrotation Yrotation Xrotation
											End Site
											{
												OFFSET 0.000000 0.000000 0.000000
											}
										}
									}
								}
								JOINT right_thumb_1
								{
									OFFSET -0.038613 -0.021074 0.025861
									CHANNELS 3 Zrotation Yrotation Xrotation
									JOINT right_thumb_2
									{
										OFFSET -0.021636 -0.017639 0.011623
										CHANNELS 3 Zrotation Yrotation Xrotation
										JOINT right_thumb_3
										{
											OFFSET -0.024004 -0.008353 0.006547
											CHANNELS 3 Zrotation Yrotation Xrotation
											End Site
											{
												OFFSET 0.000000 0.000000 0.000000
											}
										}
									}
								}
							}
						}
					}
				}
			}
		}
	}
}
MOTION
Frames: 6
Frame Time: 0.050000
0.000027 0.559448 0.000587 -5.116835 -1.237920 -26.659672 31.331893 7.884808 -57.592362 -31.304449 21.903362 93.471531 9.742480 19.675497 3.383655 0.000000 0.000000 0.000000 -36.206211 -10.199057 -53.750240 56.422448 -39.645635 70.966031 -18.891433 -33.383383 7.469738 0.000000 0.000000 0.000000 0.706271 -3.153502 41.820657 -9.701327 -1.263353 -22.100635 7.478212 -0.194159 28.746365 1.340834 1.539468 -11.176043 0.000000 0.000000 0.000000 1.668271 -5.897485 2.806022 -60.356968 -40.648356 0.090049 -50.413545 -36.348439 22.089665 15.776188 -4.773524 32.290646 -11.009230 6.889006 1.696730 16.199144 -1.539729 8.556759 0.000000 0.000000 0.000000 -9.917748 1.877671 -1.659150 4.222321 -0.123013 10.474184 0.000000 0.000000 0.000000 32.529339 -9.760177 0.081373 -18.137445 3.327960 -6.299294 0.000000 0.000000 0.000000 2.314704 1.223198 -0.162714 -6.123138 1.711253 4.985605 0.000000 0.000000 0.000000 2.926612 12.224394 10.639369 -6.964041 -5.724408 0.841698 0.000000 0.000000 0.000000 -6.035914 7.071354 3.560071 37.900473 41.383957 4.002419 -94.906528 53.513449 -55.015747 -13.772521 -5.279294 -14.535662 1.583787 -2.651097 0.716421 -8.545102 0.983490 -6.483486 0.000000 0.000000 0.000000 10.460344 6.031312 -3.799201 -7.901377 0.403605 -4.790437 0.000000 0.000000 0.000000 -10.462006 11.754846 -14.668850 -9.561899 -0.374069 1.422121 0.000000 0.000000 0.000000 7.249991 7.710058 -4.592207 -13.132636 -0.540924 -5.526834 0.000000 0.000000 0.000000 -15.937403 -6.820698 -4.376431 14.768214 2.316052 2.912977 0.000000 0.000000 0.000000 
-0.000739 0.562027 0.000587 -5.156147 -1.429254 -26.767226 31.137281 7.787917 -57.086328 -30.482369 21.110730 93.943659 9.247215 18.540424 2.450322 0.000000 0.000000 0.000000 -35.362389 -9.753139 -53.923282 54.474610 -39.013259 72.434752 -18.011914 -32.188084 7.224285 0.000000 0.000000 0.000000 0.741527 -3.240106 42.905525 -9.765112 -1.231717 -22.038681 7.850436 0.597353 27.894293 1.146257 1.500867 -10.734408 0.000000 0.000000 0.000000 1.171656 -6.967415 3.291788 -59.460141 -40.136755 -0.460071 -51.202941 -36.937738 22.747450 15.753800 -4.429175 32.156629 -10.942254 6.852849 1.707514 16.513343 -1.948797 7.467901 0.000000 0.000000 0.000000 -9.690741 1.866474 -1.589001 3.937012 0.005555 10.768315 0.000000 0.000000 0.000000 33.920384 -10.528708 -0.477790 -18.274910 3.391708 -5.851963 0.000000 0.000000 0.000000 2.355292 0.136066 -0.566342 -5.380090 1.578659 5.505233 0.000000 0.000000 0.000000 2.033822 11.863462 10.368797 -6.118164 -4.521507 0.827089 0.000000 0.000000 0.000000 -6.093843 6.010179 3.064109 36.043166 41.386954 3.674022 -98.910713 51.744520 -56.229735 -14.263764 -5.587164 -16.038508 2.192655 -2.592892 0.684093 -7.756521 0.864630 -6.829031 0.000000 0.000000 0.000000 11.644402 6.724912 -4.053710 -7.996331 0.240398 -4.443741 0.000000 0.000000 0.000000 -9.848032 11.576194 -14.717963 -8.218424 -0.191991 0.471240 0.000000 0.000000 0.000000 8.334569 8.145449 -4.692951 -12.512776 -0.537792 -5.204870 0.000000 0.000000 0.000000 -16.164616 -6.099423 -5.222665 14.593241 1.004457 3.205995 0.000000 0.000000 0.000000 
-0.002211 0.564606 0.003227 -4.942056 -1.058285 -25.443290 30.596492 7.474868 -57.963345 -29.691720 20.422052 94.382265 8.530146 16.747988 0.957221 0.000000 0.000000 0.000000 -35.183266 -10.030307 -55.237739 52.506474 -38.341780 73.696516 -16.823425 -30.512450 7.406134 0.000000 0.000000 0.000000 0.605858 -3.144671 41.909445 -9.518722 -1.359565 -22.226214 7.768338 0.440837 28.875483 1.064605 1.574952 -11.186495 0.000000 0.000000 0.000000 1.362219 -7.271635 3.441220 -58.857150 -39.701001 -0.750756 -52.635129 -37.264565 23.653015 15.847897 -4.924707 32.533563 -10.824398 6.248004 1.521804 16.405923 -1.598669 8.624703 0.000000 0.000000 0.000000 -9.595817 1.096484 -1.865956 4.724997 -0.004513 12.245161 0.000000 0.000000 0.000000 33.509825 -10.892061 -0.946134 -16.293781 3.436695 -4.346250 0.000000 0.000000 0.000000 3.066945 0.312018 -0.452379 -4.525645 1.402690 5.332151 0.000000 0.000000 0.000000 3.353355 12.480888 10.866771 -8.073790 -6.043517 1.168934 0.000000 0.000000 0.000000 -6.169739 5.233588 2.729819 32.312233 41.618891 2.650348 -106.732835 46.786432 -56.756885 -14.581019 -5.563667 -19.248677 1.472197 -2.970346 0.722385 -6.671412 0.827781 -7.836460 0.000000 0.000000 0.000000 11.813969 6.433396 -3.844879 -8.350971 0.250561 -6.037239 0.000000 0.000000 0.000000 -8.597108 11.823624 -15.668905 -9.543394 -0.376543 1.399367 0.000000 0.000000 0.000000 8.893075 8.514507 -4.757399 -13.385356 -0.565006 -6.069198 0.000000 0.000000 0.000000 -17.123409 -6.010000 -5.996072 15.218815 0.520653 3.480982 0.000000 0.000000 0.000000 
-0.002447 0.567184 0.005867 -5.182600 -0.815098 -25.080166 30.417582 7.269129 -58.069034 -28.947069 19.673381 95.005663 7.917406 15.193261 -0.152205 0.000000 0.000000 0.000000 -34.690003 -9.928196 -55.403086 50.743192 -37.740222 74.886174 -15.778491 -29.032590 7.326558 0.000000 0.000000 0.000000 1.033284 -3.343588 42.245111 -9.548321 -1.405832 -22.442535 7.719774 0.315401 28.629155 1.102568 1.516762 -10.832772 0.000000 0.000000 0.000000 1.035536 -7.380102 3.487183 -58.422592 -39.155913 -1.021383 -53.789866 -36.679905 23.767745 16.216619 -5.463046 32.937195 -11.257803 7.551871 1.796274 19.048178 -2.031976 9.590038 0.000000 0.000000 0.000000 -9.604577 2.432003 -1.442477 3.811514 -0.189567 9.187636 0.000000 0.000000 0.000000 35.511772 -11.346242 -1.495843 -17.506764 4.891414 0.009613 0.000000 0.000000 0.000000 3.160872 -0.671706 -0.912679 -4.739505 1.957165 10.812781 0.000000 0.000000 0.000000 3.372615 12.564383 10.954327 -7.805345 -6.847659 0.886859 0.000000 0.000000 0.000000 -6.003947 4.948802 2.604859 29.034662 41.970911 1.795168 -111.571584 42.714251 -55.632253 -14.811126 -6.442343 -21.561279 1.382820 -2.674768 0.610490 -4.470167 0.845268 -8.436137 0.000000 0.000000 0.000000 12.773405 7.127757 -4.027638 -7.985939 0.204662 -6.894595 0.000000 0.000000 0.000000 -6.851031 11.946995 -16.227830 -10.324003 -0.162504 0.539183 0.000000 0.000000 0.000000 10.195845 9.068096 -4.818409 -13.739897 -0.478316 -7.046997 0.000000 0.000000 0.000000 -17.816506 -5.450745 -6.871783 15.601714 -0.093528 3.756297 0.000000 0.000000 0.000000 
-0.001622 0.567184 0.008507 -4.880246 -1.014154 -25.139465 30.458453 7.362039 -57.729317 -28.918027 19.811497 95.347922 7.543720 14.331371 -0.554090 0.000000 0.000000 0.000000 -34.465105 -9.777422 -55.748574 48.929928 -37.190334 76.703978 -14.715959 -27.511914 6.703632 0.000000 0.000000 0.000000 0.657743 -3.201700 42.336059 -9.566914 -1.230231 -21.826230 8.020925 0.853556 28.365811 1.297156 1.534593 -11.021451 0.000000 0.000000 0.000000 1.195308 -7.695158 3.639654 -58.355859 -39.498431 -1.023838 -53.687012 -36.480990 23.540998 15.670133 -5.329443 33.393252 -10.652569 7.644736 1.926912 17.655033 -2.136756 8.025403 0.000000 0.000000 0.000000 -9.246512 2.607364 -1.279716 2.261717 0.198417 8.638796 0.000000 0.000000 0.000000 35.129550 -11.493230 -1.750134 -18.734716 5.502116 0.209067 0.000000 0.000000 0.000000 3.367690 -0.521492 -0.862822 -4.230364 1.819772 10.569553 0.000000 0.000000 0.000000 1.996449 12.018585 10.521643 -4.765446 -5.278670 0.127976 0.000000 0.000000 0.000000 -5.741278 4.475708 2.368937 26.491673 43.612803 1.367848 -113.731015 38.694651 -51.719684 -14.731016 -6.926490 -24.419362 0.804034 -3.247604 0.706168 -2.914101 1.041865 -9.276692 0.000000 0.000000 0.000000 13.272820 6.794020 -3.809466 -7.708428 0.217492 -7.884423 0.000000 0.000000 0.000000 -5.564279 12.004972 -16.592485 -10.996953 -0.118761 0.501675 0.000000 0.000000 0.000000 11.047249 9.416170 -4.775620 -14.310404 -0.461497 -7.566387 0.000000 0.000000 0.000000 -18.696179 -5.365094 -7.391955 15.959363 -0.212545 3.913270 0.000000 0.000000 0.000000 
-0.000209 0.567184 0.009827 -4.749334 -1.433446 -25.190435 30.403571 7.498710 -57.498372 -28.567790 19.654531 95.870220 7.254962 13.645795 -0.874982 0.000000 0.000000 0.000000 -34.406724 -9.557903 -55.802907 48.460210 -36.860731 77.006468 -14.286956 -26.885130 6.525574 0.000000 0.000000 0.000000 0.617370 -3.180869 42.837297 -9.646583 -1.306459 -22.106654 8.167742 0.756571 28.150890 1.134739 1.531563 -10.908942 0.000000 0.000000 0.000000 1.464165 -7.135094 3.383960 -58.903162 -38.571927 -1.065649 -54.595796 -36.266734 23.816786 16.470443 -5.466253 33.711182 -11.908280 8.374419 1.892023 19.448269 -2.679826 7.655942 0.000000 0.000000 0.000000 -10.261258 1.201533 -2.029614 4.130200 0.119175 12.389273 0.000000 0.000000 0.000000 35.371172 -12.630455 -3.087070 -19.736595 6.092494 0.331834 0.000000 0.000000 0.000000 2.485306 0.522027 -0.502542 -4.050662 1.519797 7.199908 0.000000 0.000000 0.000000 2.592389 13.296093 11.656768 -6.681143 -6.890453 0.421769 0.000000 0.000000 0.000000 -6.813654 4.716785 2.523816 23.580044 45.100380 0.562600 -114.626414 35.048781 -47.258441 -14.909574 -7.360822 -27.029878 1.078366 -3.309947 0.688386 -2.729171 1.074898 -9.999812 0.000000 0.000000 0.000000 13.789738 7.033544 -3.773174 -7.619779 0.196490 -8.601093 0.000000 0.000000 0.000000 -4.321287 12.315907 -17.110629 -11.795416 -0.102521 0.589333 0.000000 0.000000 0.000000 11.364046 9.721530 -4.753566 -13.720073 -0.267385 -8.125863 0.000000 0.000000 0.000000 -19.304222 -4.860137 -7.944728 16.048801 -0.805717 4.193630 0.000000 0.000000 0.000000 
